# xmcd CD database file
#
# Track frame offsets:
#	150
#	15735
#	32296
#	53264
#	76652
#	96142
#	117426
#	135034
#	152492
#	173338
#	191868
#	216814
#
# Disc length: 3050 seconds
#
# Revision: 0
# Processed by: cddbd v1.5.1PL2 Copyright (c) Steve Scherf et al.
# Submitted via: CDex 1.51
#
DISCID=7d0be80c
DTITLE=The Players - The Players
DYEAR=2004
DGENRE=Country
TTITLE0=Geared Up
TTITLE1=Coal Train Boogie
TTITLE2=Windswept
TTITLE3=Speed Up Life
TTITLE4=When They Lay Me Down
TTITLE5=Don't Try This At Home
TTITLE6=Lucky Man
TTITLE7=Something To Go On
TTITLE8=She Still Has My Heart
TTITLE9=Fat Alberta
TTITLE10=Body Works
TTITLE11=Lane's Song
EXTD=YEAR: 2004
EXTT0=
EXTT1=
EXTT2=
EXTT3=
EXTT4=
EXTT5=
EXTT6=
EXTT7=
EXTT8=
EXTT9=
EXTT10=
EXTT11=
PLAYORDER=
